<svg width="29" height="24" viewBox="0 0 29 24" fill="none" xmlns="http://www.w3.org/2000/svg">
<path d="M13.4585 3.25737V22L16.9585 19.8047V1L13.4585 3.25737Z" fill="#50E3C2"/>
<path d="M12.014 19.5411C8.78144 18.7556 6.49995 16.806 6.49995 14.5237C6.49995 12.2574 8.78115 10.3078 12.014 9.5168V7.24889C6.81919 8.11763 3 11.0451 3 14.5237C3 18.0023 6.82959 20.9341 12.014 21.811V19.5411Z" fill="#50E3C2"/>
<path d="M23.8343 9.20117C22.3586 8.28231 20.4888 7.59905 18.403 7.24875V9.51175C19.5241 9.78433 20.5326 10.1952 21.3698 10.7129L19.1331 12.1005H26.1123V7.79276L23.8342 9.20103L23.8343 9.20117Z" fill="#50E3C2"/>
</svg>
